<svg width="448" height="512" viewBox="0 0 448 512" fill="none" xmlns="http://www.w3.org/2000/svg">
<g clip-path="url(#clip0_234_4)">
<path d="M144 128C144 106.783 152.429 86.4344 167.431 71.4315C182.434 56.4285 202.783 48 224 48C245.217 48 265.566 56.4285 280.569 71.4315C295.571 86.4344 304 106.783 304 128C304 149.217 295.571 169.566 280.569 184.569C265.566 199.571 245.217 208 224 208C202.783 208 182.434 199.571 167.431 184.569C152.429 169.566 144 149.217 144 128ZM352 128C352 94.0523 338.514 61.495 314.51 37.4903C290.505 13.4857 257.948 0 224 0C190.052 0 157.495 13.4857 133.49 37.4903C109.486 61.495 96 94.0523 96 128C96 161.948 109.486 194.505 133.49 218.51C157.495 242.514 190.052 256 224 256C257.948 256 290.505 242.514 314.51 218.51C338.514 194.505 352 161.948 352 128ZM48 480C48 409.3 105.3 352 176 352H272C342.7 352 400 409.3 400 480V488C400 501.3 410.7 512 424 512C437.3 512 448 501.3 448 488V480C448 382.8 369.2 304 272 304H176C78.8 304 0 382.8 0 480V488C0 501.3 10.7 512 24 512C37.3 512 48 501.3 48 488V480Z" fill="white"/>
</g>
<defs>
<clipPath id="clip0_234_4">
<rect width="448" height="512" fill="white"/>
</clipPath>
</defs>
</svg>
